<svg width="340" height="29.293081502125613" viewBox="0 0 340 29.293081502125613" class="css-1j8o68f"><defs id="SvgjsDefs1001"><linearGradient id="SvgjsLinearGradient1009"><stop id="SvgjsStop1010" stop-color="#8f5e25" offset="0"></stop><stop id="SvgjsStop1011" stop-color="#fbf4a1" offset="0.5"></stop><stop id="SvgjsStop1012" stop-color="#8f5e25" offset="1"></stop></linearGradient></defs><g id="SvgjsG1007" featurekey="K5GtsI-0" transform="matrix(2.0864016803395886,0,0,2.0864016803395886,-2.044672691653903,-12.476681093351846)" fill="url(#SvgjsLinearGradient1009)"><path d="M0.98 6 l2.64 0 l0 11.56 l7.2 0 l0 2.44 l-9.84 0 l0 -14 z M23.12 17.4 l0 2.6 l-10.48 0 l0 -14 l10.48 0 l0 2.56 l-7.86 0 l0 3.22 l7.58 0 l0 2.46 l-7.58 0 l0 3.16 l7.86 0 z M36.28 20 l-1.18 -2.64 l-7.32 0 l-1.2 2.64 l-2.86 0 l6.28 -14 l2.88 0 l6.28 14 l-2.88 0 z M34.04 14.9 l-2.6 -5.96 l-2.6 5.96 l5.2 0 z M41.68 20 l0 -11.6 l-4.44 0 l0 -2.4 l11.52 0 l0 2.4 l-4.44 0 l0 11.6 l-2.64 0 z M62.519999999999996 20.02 l-2.62 0 l0 -5.66 l-6.88 0 l0 5.66 l-2.64 0 l0 -14 l2.64 0 l0 5.9 l6.88 0 l0 -5.9 l2.62 0 l0 14 z M75.44 17.4 l0 2.6 l-10.48 0 l0 -14 l10.48 0 l0 2.56 l-7.86 0 l0 3.22 l7.58 0 l0 2.46 l-7.58 0 l0 3.16 l7.86 0 z M89.9 19.82 l0 0.18 l-3.14 0 l-4.08 -4.68 l-2.54 0 l0 4.68 l-2.64 0 l0 -14.02 c2.22 0 4.44 0.02 6.66 0.02 c3.3 0.02 5.04 2.22 5.04 4.64 c0 1.92 -0.88 3.86 -3.54 4.4 z M84.16 8.46 l-4.02 0 l0 4.48 l4.02 0 c1.68 0 2.4 -1.12 2.4 -2.24 s-0.74 -2.24 -2.4 -2.24 z M100.34 6 c4.8 0 6.94 3.42 7 6.88 c0.06 3.54 -2.1 7.12 -7 7.12 l-5.5 0 l0 -14 l5.5 0 z M97.46000000000001 8.5 l0 8.96 l2.88 0 c3.18 0 4.44 -2.32 4.38 -4.6 c-0.06 -2.18 -1.34 -4.36 -4.38 -4.36 l-2.88 0 z M120.2 20 l-1.18 -2.64 l-7.32 0 l-1.2 2.64 l-2.86 0 l6.28 -14 l2.88 0 l6.28 14 l-2.88 0 z M117.96000000000001 14.9 l-2.6 -5.96 l-2.6 5.96 l5.2 0 z M129.38000000000002 6 c4.8 0 6.94 3.42 7 6.88 c0.06 3.54 -2.1 7.12 -7 7.12 l-5.5 0 l0 -14 l5.5 0 z M126.50000000000001 8.5 l0 8.96 l2.88 0 c3.18 0 4.44 -2.32 4.38 -4.6 c-0.06 -2.18 -1.34 -4.36 -4.38 -4.36 l-2.88 0 z M143.44000000000003 6 c4.8 0 6.94 3.42 7 6.88 c0.06 3.54 -2.1 7.12 -7 7.12 l-5.5 0 l0 -14 l5.5 0 z M140.56 8.5 l0 8.96 l2.88 0 c3.18 0 4.44 -2.32 4.38 -4.6 c-0.06 -2.18 -1.34 -4.36 -4.38 -4.36 l-2.88 0 z M153.48000000000002 6 l3.56 5.78 l3.72 -5.78 l3.18 0 l0 0.12 l-5.58 8.1 l0 5.78 l-2.64 0 l0 -5.78 l-5.38 -8.1 l0 -0.12 l3.14 0 z"></path></g></svg>
